<svg id="_001-facebook" data-name="001-facebook" xmlns="http://www.w3.org/2000/svg" width="58" height="58" viewBox="0 0 58 58">
  <path id="Path_1" data-name="Path 1" d="M291.583,508.668q-.362.059-.727.109Q291.22,508.727,291.583,508.668Zm0,0" transform="translate(-257.907 -451.045)" fill="#439bff"/>
  <path id="Path_2" data-name="Path 2" d="M299.686,507.793c-.116.021-.231.041-.346.061C299.455,507.834,299.57,507.814,299.686,507.793Zm0,0" transform="translate(-265.43 -450.27)" fill="#439bff"/>
  <path id="Path_3" data-name="Path 3" d="M278.462,510.34q-.424.048-.853.084Q278.038,510.388,278.462,510.34Zm0,0" transform="translate(-246.162 -452.528)" fill="#439bff"/>
  <path id="Path_4" data-name="Path 4" d="M286.854,509.738c-.136.018-.273.035-.409.051C286.582,509.773,286.719,509.756,286.854,509.738Zm0,0" transform="translate(-253.997 -451.994)" fill="#439bff"/>
  <path id="Path_5" data-name="Path 5" d="M306.97,506.41l-.306.064Zm0,0" transform="translate(-271.925 -449.043)" fill="#439bff"/>
  <path id="Path_6" data-name="Path 6" d="M324.731,502.113l-.247.069Zm0,0" transform="translate(-287.726 -445.233)" fill="#439bff"/>
  <path id="Path_7" data-name="Path 7" d="M319.328,503.543l-.269.07Zm0,0" transform="translate(-282.916 -446.501)" fill="#439bff"/>
  <path id="Path_8" data-name="Path 8" d="M312.352,505.254l-.286.064Zm0,0" transform="translate(-276.715 -448.018)" fill="#439bff"/>
  <path id="Path_9" data-name="Path 9" d="M273.939,511.09q-.229.019-.458.035Q273.71,511.109,273.939,511.09Zm0,0" transform="translate(-242.5 -453.193)" fill="#439bff"/>
  <path id="Path_10" data-name="Path 10" d="M58,29A29,29,0,1,0,29,58c.17,0,.34,0,.51-.007V35.418h-6.23V28.157h6.23V22.814c0-6.2,3.783-9.57,9.311-9.57a51.288,51.288,0,0,1,5.586.285v6.477H40.595c-3.007,0-3.59,1.429-3.59,3.526v4.625H44.2l-.937,7.261H37V56.88A29.016,29.016,0,0,0,58,29Zm0,0" fill="#439bff"/>
  <path id="Path_11" data-name="Path 11" d="M265.8,511.43q-.453.029-.909.045Q265.347,511.46,265.8,511.43Zm0,0" transform="translate(-234.883 -453.495)" fill="#439bff"/>
  <path id="Path_12" data-name="Path 12" d="M260.985,511.836q-.24.008-.481.012Q260.745,511.844,260.985,511.836Zm0,0" transform="translate(-230.994 -453.855)" fill="#439bff"/>
</svg>
