<svg id="_011-instagram" data-name="011-instagram" xmlns="http://www.w3.org/2000/svg" width="57.667" height="57.667" viewBox="0 0 57.667 57.667">
  <path id="Path_13" data-name="Path 13" d="M218.038,212.519A5.519,5.519,0,1,1,212.519,207,5.519,5.519,0,0,1,218.038,212.519Zm0,0" transform="translate(-183.686 -183.686)" fill="#439bff"/>
  <path id="Path_14" data-name="Path 14" d="M161.965,139.3a5.483,5.483,0,0,0-3.142-3.142,9.16,9.16,0,0,0-3.074-.57c-1.746-.08-2.27-.1-6.69-.1s-4.945.017-6.69.1a9.167,9.167,0,0,0-3.074.57,5.485,5.485,0,0,0-3.143,3.142,9.164,9.164,0,0,0-.57,3.074c-.08,1.746-.1,2.269-.1,6.69s.017,4.944.1,6.69a9.16,9.16,0,0,0,.57,3.074,5.483,5.483,0,0,0,3.142,3.142,9.149,9.149,0,0,0,3.074.57c1.746.08,2.269.1,6.69.1s4.945-.017,6.69-.1a9.149,9.149,0,0,0,3.074-.57,5.483,5.483,0,0,0,3.142-3.142,9.169,9.169,0,0,0,.57-3.074c.08-1.746.1-2.27.1-6.69s-.017-4.945-.1-6.69A9.149,9.149,0,0,0,161.965,139.3Zm-12.907,18.266a8.5,8.5,0,1,1,8.5-8.5A8.5,8.5,0,0,1,149.058,157.564Zm8.838-15.353a1.987,1.987,0,1,1,1.987-1.987A1.987,1.987,0,0,1,157.9,142.211Zm0,0" transform="translate(-120.225 -120.229)" fill="#439bff"/>
  <path id="Path_15" data-name="Path 15" d="M28.833,0A28.833,28.833,0,1,0,57.667,28.833,28.836,28.836,0,0,0,28.833,0ZM45.29,35.659a12.147,12.147,0,0,1-.769,4.019,8.466,8.466,0,0,1-4.842,4.842,12.156,12.156,0,0,1-4.019.769c-1.766.081-2.33.1-6.826.1s-5.06-.019-6.826-.1a12.156,12.156,0,0,1-4.019-.769,8.466,8.466,0,0,1-4.842-4.842,12.144,12.144,0,0,1-.769-4.019c-.081-1.766-.1-2.33-.1-6.826s.019-5.06.1-6.826a12.148,12.148,0,0,1,.769-4.019,8.471,8.471,0,0,1,4.843-4.842,12.159,12.159,0,0,1,4.019-.769c1.766-.081,2.33-.1,6.826-.1s5.06.019,6.826.1a12.161,12.161,0,0,1,4.019.769,8.468,8.468,0,0,1,4.842,4.843,12.146,12.146,0,0,1,.77,4.019c.081,1.766.1,2.33.1,6.826S45.371,33.894,45.29,35.659Zm0,0" fill="#439bff"/>
</svg>
